<svg
  width="64"
  height="64"
  viewBox="0 0 64 64"
  fill="none"
  xmlns="http://www.w3.org/2000/svg"
>
  <path
    d="M32 64C49.6731 64 64 49.6731 64 32C64 14.3269 49.6731 0 32 0C14.3269 0 0 14.3269 0 32C0 49.6731 14.3269 64 32 64Z"
    fill="#3C4748"
  />
  <path
    d="M16.2672 23.2807L28.8246 15.9477C29.1737 16.0916 29.5503 16.1706 29.9453 16.1706C31.5896 16.1706 32.9308 14.8145 32.9308 13.152C32.9308 11.4894 31.5896 10.1333 29.9453 10.1333C28.301 10.1333 26.9691 11.4801 26.9598 13.138L13.989 20.7125C12.928 21.3348 12.2666 22.4912 12.2666 23.7358V39.86C12.2666 41.1 12.928 42.261 13.9936 42.8833L28.5996 51.4098C28.8016 51.5259 29.0313 51.591 29.2609 51.591C29.4906 51.591 29.7203 51.5306 29.9224 51.4098C30.3358 51.1683 30.5838 50.7318 30.5838 50.2488V49.8169C30.5838 49.111 30.2071 48.4562 29.6054 48.1032L16.2672 40.3151C15.8584 40.0736 15.6012 39.6278 15.6012 39.1495V24.4463C15.6012 23.968 15.8584 23.5175 16.2672 23.2807ZM28.154 12.446C28.4342 11.7169 29.1324 11.2061 29.9499 11.2061C30.051 11.2061 30.1475 11.2154 30.2439 11.2293C30.3633 11.2479 30.4781 11.2758 30.5838 11.3175C31.3371 11.5823 31.8744 12.3067 31.8744 13.1566C31.8744 14.09 31.2222 14.8749 30.3541 15.0607C30.2255 15.0885 30.0877 15.1025 29.9499 15.1025C28.8844 15.1025 28.0208 14.2294 28.0208 13.152C28.0208 12.9012 28.0713 12.6643 28.154 12.446Z"
    fill="white"
  />
  <path
    d="M51.0374 21.6367L36.4222 13.1056C36.2155 12.9848 35.9859 12.9244 35.7516 12.9244C35.5174 12.9244 35.2877 12.9895 35.0811 13.1056C34.6631 13.3517 34.4104 13.7882 34.4104 14.2805V14.8796C34.4104 15.4648 34.7228 16.0081 35.2234 16.3007L48.7592 24.2002C49.1542 24.4278 49.3976 24.8551 49.3976 25.3148V40.083C49.3976 40.5427 49.1542 40.97 48.7592 41.1976L36.5232 48.1636C36.1145 47.95 35.6506 47.8293 35.1637 47.8293C33.5194 47.8293 32.1782 49.1853 32.1782 50.848C32.1782 52.5105 33.5194 53.8666 35.1637 53.8666C36.6565 53.8666 37.8966 52.7567 38.117 51.3077L51.042 43.7611C52.0892 43.1481 52.7368 42.0149 52.7368 40.7935V24.6043C52.7322 23.3829 52.0846 22.2451 51.0374 21.6367ZM36.4957 52.2551C36.2706 52.4733 35.9997 52.6359 35.6919 52.7241C35.522 52.7752 35.3429 52.7985 35.1591 52.7985C35.1407 52.7985 35.1178 52.7985 35.0994 52.7985C34.0614 52.7659 33.23 51.9068 33.23 50.8526C33.23 49.7752 34.0935 48.9021 35.1591 48.9021C35.2601 48.9021 35.3612 48.9114 35.4577 48.9253C36.3809 49.0692 37.0882 49.8773 37.0882 50.8526C37.0882 51.4052 36.8631 51.9021 36.4957 52.2551Z"
    fill="white"
  />
  <path
    d="M31.0698 20.2667H33.4826V23.2619C34.0373 23.3359 34.6197 23.4653 35.2298 23.6502C35.84 23.8351 36.4409 24.0939 37.0325 24.4267L36.0341 27.0891C35.4979 26.7933 34.897 26.553 34.2314 26.3681C33.5658 26.1647 32.9095 26.063 32.2624 26.063C31.5968 26.063 31.0421 26.2109 30.5984 26.5067C30.1731 26.7841 29.9605 27.1908 29.9605 27.727C29.9605 28.2447 30.1454 28.6514 30.5152 28.9473C30.8849 29.2246 31.5136 29.5112 32.401 29.807L33.6768 30.223C35.0819 30.6852 36.1543 31.3323 36.8938 32.1643C37.6334 32.9778 38.0032 34.004 38.0032 35.2427C38.0032 35.8529 37.8922 36.4353 37.6704 36.9899C37.467 37.5261 37.1527 38.0068 36.7274 38.4321C36.3207 38.8573 35.8122 39.2178 35.2021 39.5137C34.592 39.791 33.8801 39.9851 33.0666 40.0961V43.2577H30.6538V40.1515C29.7849 40.0775 28.9898 39.9204 28.2688 39.6801C27.5662 39.4397 26.8821 39.1069 26.2165 38.6817L27.4645 36.047C28.1301 36.4907 28.8049 36.8143 29.489 37.0177C30.1916 37.221 30.8665 37.3227 31.5136 37.3227C32.4565 37.3227 33.1313 37.1563 33.5381 36.8235C33.9633 36.4722 34.176 36.0285 34.176 35.4923C34.176 35.0116 34.0003 34.6141 33.649 34.2998C33.2977 33.967 32.6784 33.6527 31.7909 33.3569L30.4042 32.9131C29.8126 32.7282 29.2579 32.4971 28.7402 32.2198C28.2225 31.924 27.7696 31.5819 27.3813 31.1937C26.993 30.8054 26.688 30.3617 26.4661 29.8625C26.2442 29.3448 26.1333 28.7531 26.1333 28.0875C26.1333 27.4034 26.2535 26.7748 26.4938 26.2017C26.7527 25.61 27.0947 25.1108 27.52 24.7041C27.9637 24.2788 28.4814 23.946 29.073 23.7057C29.6832 23.4468 30.3488 23.2989 31.0698 23.2619V20.2667Z"
    fill="white"
  />
</svg>