<?xml version="1.0" standalone="no"?>
<!DOCTYPE svg PUBLIC "-//W3C//DTD SVG 20010904//EN"
 "http://www.w3.org/TR/2001/REC-SVG-20010904/DTD/svg10.dtd">
<svg version="1.0" xmlns="http://www.w3.org/2000/svg"
 width="526.000000pt" height="526.000000pt" viewBox="0 0 526.000000 526.000000"
 preserveAspectRatio="xMidYMid meet">
<metadata>
Created by potrace 1.14, written by Peter Selinger 2001-2017
</metadata>
<g transform="translate(0.000000,526.000000) scale(0.100000,-0.100000)"
fill="#000000" stroke="none">
<path d="M2320 5254 c-72 -27 -102 -53 -179 -154 -19 -25 -39 -50 -45 -56 -6
-6 -22 -26 -36 -44 -33 -43 -140 -179 -162 -205 -10 -11 -67 -83 -128 -160
-60 -77 -140 -178 -178 -225 -37 -46 -72 -91 -79 -100 -6 -8 -45 -56 -85 -106
-40 -51 -109 -138 -153 -195 -44 -56 -95 -119 -113 -138 -17 -20 -35 -44 -38
-53 -3 -10 -9 -18 -13 -18 -5 0 -20 -17 -34 -37 -13 -21 -38 -52 -53 -70 -16
-17 -38 -44 -49 -59 -22 -29 -170 -217 -197 -249 -10 -11 -81 -101 -158 -200
-78 -99 -157 -199 -177 -222 -19 -23 -58 -73 -86 -110 -29 -38 -55 -70 -58
-73 -27 -22 -167 -216 -186 -257 -32 -70 -36 -86 -39 -178 -4 -134 48 -259
149 -352 25 -24 49 -43 53 -43 4 0 15 -6 23 -14 9 -8 45 -25 81 -37 l65 -23
1089 -1 c1049 -1 1089 -2 1092 -20 3 -17 9 -434 19 -1240 3 -198 7 -382 10
-408 14 -126 118 -211 249 -202 86 5 119 32 251 200 17 22 44 55 60 75 17 20
41 52 55 70 28 38 72 93 80 100 3 3 21 25 40 50 19 25 38 46 42 48 5 2 8 10 8
17 0 7 4 15 8 17 12 4 182 217 182 228 0 4 4 10 9 12 4 2 65 75 135 163 69 88
138 174 152 190 13 17 28 35 32 40 22 29 78 101 83 105 3 3 29 37 59 75 29 39
65 84 79 101 14 17 40 48 56 69 17 21 77 98 135 170 58 73 116 147 130 165 14
19 34 44 45 56 11 12 29 34 39 49 11 14 27 35 36 45 9 10 25 31 36 46 10 15
26 34 34 43 9 9 29 34 45 56 17 22 38 49 47 60 14 17 75 94 287 361 140 176
157 339 58 544 -17 35 -127 150 -143 150 -8 0 -14 3 -14 8 0 4 -12 12 -27 19
-16 6 -46 20 -68 29 -37 17 -110 18 -1143 20 -607 1 -1106 5 -1109 7 -3 3 -7
365 -9 804 -2 439 -6 822 -9 850 -2 29 -14 71 -25 93 -20 40 -91 100 -127 108
-35 7 -118 11 -133 6z"/>
</g>
</svg>
