<?xml version="1.0" standalone="no"?>
<!DOCTYPE svg PUBLIC "-//W3C//DTD SVG 20010904//EN"
 "http://www.w3.org/TR/2001/REC-SVG-20010904/DTD/svg10.dtd">
<svg version="1.0" xmlns="http://www.w3.org/2000/svg"
 width="700.000000pt" height="700.000000pt" viewBox="0 0 700.000000 700.000000"
 preserveAspectRatio="xMidYMid meet">
<metadata>
Created by potrace 1.14, written by Peter Selinger 2001-2017
</metadata>
<g transform="translate(0.000000,700.000000) scale(0.100000,-0.100000)"
fill="#000000" stroke="none">
<path d="M3285 6994 c-22 -2 -89 -9 -150 -14 -585 -57 -1178 -282 -1670 -633
-294 -210 -602 -518 -813 -813 -306 -429 -514 -928 -601 -1444 -36 -214 -46
-332 -46 -590 0 -258 10 -376 46 -590 137 -808 562 -1550 1194 -2085 532 -450
1170 -722 1890 -807 144 -16 586 -16 735 1 689 78 1331 348 1854 779 127 105
340 316 451 447 443 524 711 1144 801 1850 22 173 25 603 6 770 -85 721 -356
1356 -807 1890 -51 61 -157 173 -236 251 -554 541 -1252 875 -2029 970 -118
14 -539 27 -625 18z m1849 -1898 c42 -18 66 -51 66 -94 0 -42 -618 -3160 -632
-3187 -22 -43 -83 -95 -131 -111 -51 -17 -115 -13 -166 9 -25 11 -622 467
-1194 911 -148 115 -270 207 -272 205 -2 -2 -27 -213 -56 -469 -29 -256 -56
-469 -60 -474 -11 -12 -44 46 -74 129 -13 38 -93 293 -176 567 l-152 496 -451
153 c-248 83 -465 160 -483 171 -41 24 -91 82 -99 113 -3 14 -3 37 1 52 9 39
79 99 139 122 28 10 839 328 1801 706 963 378 1773 694 1800 701 67 17 99 17
139 0z"/>
</g>
</svg>
